#!OML:ASF E:\Steps\Project 1\Capture day 1\Session 2\Subject.ASF
:FULLY-SPECIFIED
:DEGREES
111
root 8.7919 16.325 30.7823 -150.912 -0.641391 178.915
lowerback -29.032 -1.43677 -6.41951
upperback -2.49989 -0.623527 -0.519544
thorax 12.538 -0.969641 2.61281
lowerneck -8.38828 -1.70174 0.0208982
upperneck 0.901609 -2.56113 4.22672
head 1.77931 -1.23222 1.22794
rclavicle -1.59028e-015 2.34566e-014
rhumerus -36.6706 -19.7962 -79.965
rradius 30.4711
rwrist -0.29887
rhand -6.41006 -48.9847
rfingers 7.12502
rthumb 19.4381 -78.0332
lclavicle -1.59028e-015 2.34566e-014
lhumerus -29.8078 7.76028 79.9024
lradius 20.9954
lwrist -5.97929
lhand -21.2873 -13.6795
lfingers 7.12502
lthumb 5.09696 16.2392
rfemur -24.371 6.83795 17.2834
rtibia 5.37941
rfoot -18.7479 -8.92676
rtoes -31.0562
lfemur -25.5171 -9.88999 -18.1997
ltibia 7.71602
lfoot -8.79746 2.49619
ltoes -33.334
112
root 8.79088 16.3252 30.78 -150.93 -0.694624 178.934
lowerback -28.9396 -1.43906 -6.33812
upperback -2.87836 -0.661691 -0.59428
thorax 12.8529 -0.995433 2.6388
lowerneck -8.30601 -1.674 -0.0286848
upperneck 0.858723 -2.51745 4.2584
head 1.75111 -1.21145 1.24887
rclavicle 1.18277e-014 9.93923e-015
rhumerus -36.6771 -19.722 -80.0012
rradius 30.5208
rwrist -0.389203
rhand -6.41263 -48.9221
rfingers 7.12502
rthumb 19.4357 -77.9708
lclavicle 1.18277e-014 9.93923e-015
lhumerus -29.8357 7.75803 79.9185
lradius 21.0267
lwrist -5.97382
lhand -21.2253 -14.0873
lfingers 7.12502
lthumb 5.15682 15.8299
rfemur -24.3092 6.75887 17.3483
rtibia 5.32632
rfoot -18.7175 -8.90284
rtoes -31.3661
lfemur -25.4958 -10.0089 -18.1524
ltibia 7.72292
lfoot -8.81012 2.64104
ltoes -33.9639
113
root 8.79008 16.3232 30.7776 -150.896 -0.649151 178.948
lowerback -29.0884 -1.44618 -6.3177
upperback -2.47538 -0.6637 -0.490919
thorax 12.5961 -0.983854 2.57274
lowerneck -8.28386 -1.63975 -0.0965385
upperneck 0.799476 -2.4646 4.28355
head 1.72829 -1.18649 1.27093
rclavicle -3.67752e-015 1.47101e-014
rhumerus -36.6153 -19.6206 -80.0399
rradius 30.5344
rwrist -0.431377
rhand -6.41312 -48.8775
rfingers 7.12502
rthumb 19.4352 -77.9262
lclavicle -3.67752e-015 1.47101e-014
lhumerus -29.8081 7.95643 79.9059
lradius 21.0079
lwrist -6.07574
lhand -21.1609 -14.3391
lfingers 7.12502
lthumb 5.21903 15.5766
rfemur -24.3525 6.68753 17.3776
rtibia 5.33872
rfoot -18.7023 -8.85532
rtoes -31.7741
lfemur -25.4823 -10.1156 -18.1289
ltibia 7.65702
lfoot -8.74313 2.81511
ltoes -34.2846
114
root 8.79066 16.3209 30.7763 -150.842 -0.574489 178.914
lowerback -29.1644 -1.45239 -6.36046
upperback -2.47094 -0.655943 -0.488345
thorax 12.6341 -0.985076 2.59965
lowerneck -8.33236 -1.61166 -0.143775
upperneck 0.808138 -2.42509 4.31052
head 1.74026 -1.16599 1.28925
rclavicle 9.93923e-017 -3.18055e-014
rhumerus -36.5809 -19.4221 -80.1338
rradius 30.5995
rwrist -0.516565
rhand -6.4399 -48.9339
rfingers 7.12502
rthumb 19.4094 -77.9852
lclavicle 9.93923e-017 -3.18055e-014
lhumerus -29.807 7.97806 79.9256
lradius 21.0632
lwrist -6.05171
lhand -21.101 -14.1688
lfingers 7.12502
lthumb 5.27684 15.7455
rfemur -24.4272 6.73273 17.2944
rtibia 5.3636
rfoot -18.7298 -8.87958
rtoes -31.4694
lfemur -25.5159 -10.1327 -18.1661
ltibia 7.63294
lfoot -8.74585 2.8596
ltoes -33.3797
115
root 8.79146 16.3208 30.7773 -150.817 -0.569272 178.882
lowerback -29.171 -1.45894 -6.37632
upperback -2.47802 -0.658673 -0.513287
thorax 12.6285 -0.987504 2.57997
lowerneck -8.35683 -1.60051 -0.145846
upperneck 0.827153 -2.41323 4.34481
head 1.75133 -1.15907 1.30106
rclavicle 3.27995e-015 -3.45885e-014
rhumerus -36.5805 -19.3637 -80.2159
rradius 30.6453
rwrist -0.492301
rhand -6.44672 -48.968
rfingers 7.12502
rthumb 19.4029 -78.02
lclavicle 3.27995e-015 -3.45885e-014
lhumerus -29.8445 7.81685 79.9362
lradius 21.1744
lwrist -5.90784
lhand -20.8473 -14.1093
lfingers 7.12502
lthumb 5.52174 15.7988
rfemur -24.4588 6.78399 17.2297
rtibia 5.37062
rfoot -18.7542 -8.91699
rtoes -31.1274
lfemur -25.5548 -10.0974 -18.1979
ltibia 7.64621
lfoot -8.81313 2.78104
ltoes -32.3176
116
root 8.79128 16.3215 30.777 -150.824 -0.591278 178.896
lowerback -29.1594 -1.4612 -6.33643
upperback -2.45209 -0.667655 -0.523244
thorax 12.6539 -0.988272 2.54484
lowerneck -8.41935 -1.59014 -0.138927
upperneck 0.885897 -2.40386 4.36354
head 1.7818 -1.15228 1.30614
rclavicle -9.83984e-015 -6.75868e-015
rhumerus -36.5043 -19.3877 -80.2801
rradius 30.6545
rwrist -0.476388
rhand -6.42329 -48.9126
rfingers 7.12502
rthumb 19.4254 -77.9623
lclavicle -9.83984e-015 -6.75868e-015
lhumerus -29.8048 7.8368 79.9184
lradius 21.2025
lwrist -5.88859
lhand -20.6757 -14.24
lfingers 7.12502
lthumb 5.68747 15.6637
rfemur -24.4562 6.72527 17.2702
rtibia 5.37444
rfoot -18.7718 -8.84351
rtoes -31.2316
lfemur -25.5739 -9.92821 -18.2255
ltibia 7.69298
lfoot -8.80653 2.58784
ltoes -32.9541
117
root 8.78987 16.3207 30.7753 -150.805 -0.597175 178.895
lowerback -29.1888 -1.4694 -6.33713
upperback -2.43666 -0.67555 -0.504332
thorax 12.6858 -0.992471 2.56211
lowerneck -8.45658 -1.58128 -0.137884
upperneck 0.887908 -2.39481 4.3833
head 1.78931 -1.14739 1.31255
rclavicle -5.66536e-015 -1.66979e-014
rhumerus -36.4657 -19.327 -80.3081
rradius 30.6962
rwrist -0.507593
rhand -6.4106 -48.9386
rfingers 7.12502
rthumb 19.4376 -77.9871
lclavicle -5.66536e-015 -1.66979e-014
lhumerus -29.7677 7.84781 79.9812
lradius 21.2023
lwrist -5.87563
lhand -20.8051 -14.1751
lfingers 7.12502
lthumb 5.56249 15.7319
rfemur -24.4862 6.56605 17.3059
rtibia 5.39876
rfoot -18.7992 -8.71745
rtoes -31.1334
lfemur -25.6012 -9.89148 -18.2548
ltibia 7.72003
lfoot -8.77781 2.59082
ltoes -34.1206
118
root 8.7893 16.3203 30.7735 -150.822 -0.5768 178.849
lowerback -29.1858 -1.46611 -6.38474
upperback -2.43804 -0.655455 -0.515481
thorax 12.6805 -0.985751 2.58331
lowerneck -8.3977 -1.58894 -0.132045
upperneck 0.795381 -2.40819 4.45349
head 1.75014 -1.1563 1.33352
rclavicle 3.18055e-015 1.59028e-015
rhumerus -36.5221 -19.2751 -80.3212
rradius 30.769
rwrist -0.552268
rhand -6.41443 -48.9572
rfingers 7.12502
rthumb 19.4339 -78.006
lclavicle 3.18055e-015 1.59028e-015
lhumerus -29.7955 7.5956 80.1103
lradius 21.2774
lwrist -5.61226
lhand -21.0937 -13.8766
lfingers 7.12502
lthumb 5.28392 16.0376
rfemur -24.4481 6.55334 17.245
rtibia 5.38666
rfoot -18.7941 -8.68895
rtoes -30.6444
lfemur -25.56 -9.86705 -18.346
ltibia 7.70325
lfoot -8.78096 2.66498
ltoes -34.7277
119
root 8.78954 16.3203 30.772 -150.845 -0.584077 178.83
lowerback -29.1626 -1.46415 -6.37656
upperback -2.43974 -0.654151 -0.540397
thorax 12.6676 -0.983898 2.55299
lowerneck -8.37112 -1.5634 -0.137221
upperneck 0.859157 -2.37533 4.48838
head 1.76626 -1.13763 1.34728
rclavicle 5.06901e-015 -1.55052e-014
rhumerus -36.5727 -19.264 -80.3672
rradius 30.8312
rwrist -0.603756
rhand -6.42099 -48.9071
rfingers 7.12502
rthumb 19.4276 -77.9565
lclavicle 5.06901e-015 -1.55052e-014
lhumerus -29.8289 7.4566 80.1437
lradius 21.355
lwrist -5.40733
lhand -21.2681 -13.6241
lfingers 7.12502
lthumb 5.11545 16.2941
rfemur -24.3842 6.62833 17.2053
rtibia 5.34278
rfoot -18.7776 -8.70072
rtoes -30.5433
lfemur -25.5197 -9.80101 -18.3941
ltibia 7.69693
lfoot -8.80648 2.63657
ltoes -34.8383
120
root 8.78926 16.3194 30.7717 -150.808 -0.608027 178.843
lowerback -29.1644 -1.4601 -6.32639
upperback -2.46483 -0.66929 -0.552057
thorax 12.6412 -0.988777 2.50747
lowerneck -8.32597 -1.54931 -0.151124
upperneck 0.8916 -2.35541 4.51505
head 1.76908 -1.12651 1.35938
rclavicle 2.18663e-015 2.78299e-014
rhumerus -36.5982 -19.2896 -80.3877
rradius 30.8393
rwrist -0.597994
rhand -6.41141 -48.8688
rfingers 7.12502
rthumb 19.4368 -77.9173
lclavicle 2.18663e-015 2.78299e-014
lhumerus -29.8618 7.44679 80.124
lradius 21.401
lwrist -5.36911
lhand -21.2222 -13.5034
lfingers 7.12502
lthumb 5.15977 16.4137
rfemur -24.4159 6.61287 17.2259
rtibia 5.33832
rfoot -18.7944 -8.70133
rtoes -30.8669
lfemur -25.5418 -9.99683 -18.3071
ltibia 7.65865
lfoot -8.80323 2.75523
ltoes -34.7085
121
root 8.78901 16.3187 30.7708 -150.776 -0.631836 178.872
lowerback -29.1995 -1.4354 -6.28257
upperback -2.46987 -0.650403 -0.553555
thorax 12.6497 -0.978769 2.48857
lowerneck -8.29528 -1.57242 -0.186658
upperneck 0.827525 -2.38518 4.58328
head 1.74541 -1.14254 1.38624
rclavicle 1.98785e-015 -1.39149e-014
rhumerus -36.5928 -19.3992 -80.3394
rradius 30.817
rwrist -0.547041
rhand -6.357 -48.7772
rfingers 7.12502
rthumb 19.4891 -77.8205
lclavicle 1.98785e-015 -1.39149e-014
lhumerus -29.8753 7.33601 80.1851
lradius 21.4527
lwrist -5.30932
lhand -21.291 -13.4615
lfingers 7.12502
lthumb 5.09333 16.4573
rfemur -24.4408 6.60306 17.2659
rtibia 5.33215
rfoot -18.8114 -8.72553
rtoes -30.8556
lfemur -25.5577 -10.1469 -18.2221
ltibia 7.61487
lfoot -8.77016 2.87029
ltoes -34.9927
122
root 8.78963 16.3194 30.77 -150.791 -0.67697 178.871
lowerback -29.1975 -1.44104 -6.2968
upperback -2.44484 -0.649168 -0.531528
thorax 12.6777 -0.9781 2.52079
lowerneck -8.36535 -1.56955 -0.225892
upperneck 0.808671 -2.38069 4.61102
head 1.75295 -1.14019 1.40193
rclavicle -3.27995e-015 2.90226e-014
rhumerus -36.5564 -19.4583 -80.2818
rradius 30.8152
rwrist -0.511442
rhand -6.30542 -48.688
rfingers 7.12502
rthumb 19.5387 -77.7262
lclavicle -3.27995e-015 2.90226e-014
lhumerus -29.8369 7.301 80.2649
lradius 21.4672
lwrist -5.28836
lhand -21.4085 -13.3615
lfingers 7.12502
lthumb 4.97996 16.56
rfemur -24.4115 6.58889 17.2809
rtibia 5.33065
rfoot -18.8265 -8.76517
rtoes -30.8537
lfemur -25.5536 -10.13 -18.218
ltibia 7.62485
lfoot -8.76575 2.8566
ltoes -35.0943
123
root 8.79022 16.3199 30.7698 -150.794 -0.716422 178.842
lowerback -29.1733 -1.4763 -6.32911
upperback -2.43432 -0.685612 -0.507406
thorax 12.6825 -0.995611 2.55116
lowerneck -8.422 -1.53991 -0.235596
upperneck 0.771126 -2.34017 4.58713
head 1.74943 -1.12125 1.39733
rclavicle -6.36111e-015 1.63003e-014
rhumerus -36.5334 -19.3911 -80.2814
rradius 30.8424
rwrist -0.570259
rhand -6.30219 -48.6393
rfingers 7.12502
rthumb 19.5418 -77.6772
lclavicle -6.36111e-015 1.63003e-014
lhumerus -29.7847 7.37494 80.2901
lradius 21.4359
lwrist -5.2477
lhand -21.4378 -13.2488
lfingers 7.12502
lthumb 4.95161 16.6734
rfemur -24.3977 6.55639 17.2625
rtibia 5.33417
rfoot -18.8422 -8.79882
rtoes -30.7788
lfemur -25.564 -10.1422 -18.2337
ltibia 7.64678
lfoot -8.7762 2.81021
ltoes -34.6139
124
root 8.78973 16.3192 30.7681 -150.719 -0.727878 178.846
lowerback -29.2633 -1.47951 -6.31008
upperback -2.44579 -0.695611 -0.510331
thorax 12.7103 -1.00217 2.53175
lowerneck -8.42527 -1.5129 -0.226562
upperneck 0.793892 -2.30505 4.57992
head 1.75625 -1.10314 1.39495
rclavicle 7.45443e-015 -3.61788e-014
rhumerus -36.529 -19.4011 -80.3028
rradius 30.8497
rwrist -0.657312
rhand -6.30339 -48.5887
rfingers 7.12502
rthumb 19.5407 -77.6268
lclavicle 7.45443e-015 -3.61788e-014
lhumerus -29.7898 7.41839 80.2771
lradius 21.436
lwrist -5.22485
lhand -21.4223 -13.3772
lfingers 7.12502
lthumb 4.96659 16.5446
rfemur -24.4599 6.59247 17.247
rtibia 5.29614
rfoot -18.788 -8.81507
rtoes -30.4784
lfemur -25.6525 -10.0915 -18.2302
ltibia 7.67628
lfoot -8.8135 2.7205
ltoes -34.3724
125
root 8.79067 16.3198 30.7668 -150.677 -0.727242 178.855
lowerback -29.3529 -1.4722 -6.31166
upperback -2.43515 -0.679892 -0.515689
thorax 12.7609 -0.99739 2.53073
lowerneck -8.4129 -1.50398 -0.231702
upperneck 0.792891 -2.29422 4.61083
head 1.75415 -1.09744 1.4063
rclavicle 6.36111e-015 -1.86858e-014
rhumerus -36.5198 -19.4882 -80.3023
rradius 30.8482
rwrist -0.637608
rhand -6.29022 -48.5365
rfingers 7.12502
rthumb 19.5533 -77.5732
lclavicle 6.36111e-015 -1.86858e-014
lhumerus -29.7615 7.5568 80.228
lradius 21.386
lwrist -5.44897
lhand -21.2467 -13.6804
lfingers 7.12502
lthumb 5.13616 16.2374
rfemur -24.4971 6.70022 17.2225
rtibia 5.25951
rfoot -18.7276 -8.88581
rtoes -30.668
lfemur -25.7117 -10.0122 -18.2302
ltibia 7.70016
lfoot -8.81541 2.66463
ltoes -34.7531
